<svg version="1.1" xmlns="http://www.w3.org/2000/svg" viewBox="0 0 1111.1143973214284 674" width="1111.1143973214284" height="674">
  <!-- svg-source:excalidraw -->
  
  <defs>
    <style class="style-fonts">
      @font-face {
        font-family: "Virgil";
        src: url("https://excalidraw.com/Virgil.woff2");
      }
      @font-face {
        font-family: "Cascadia";
        src: url("https://excalidraw.com/Cascadia.woff2");
      }
    </style>
  </defs>
  <rect x="0" y="0" width="1111.1143973214284" height="674" fill="#ffffff"></rect><g stroke-linecap="round" transform="translate(10 10) rotate(0 212.5 327)"><path d="M32 0 L393 0 L400.5 0.5 L407 2 L412.5 4.5 L417 8 L420.5 12.5 L423 18 L424.5 24.5 L425 32 L425 622 L424.5 629.5 L423 636 L420.5 641.5 L417 646 L412.5 649.5 L407 652 L400.5 653.5 L393 654 L32 654 L24.5 653.5 L18 652 L12.5 649.5 L8 646 L4.5 641.5 L2 636 L0.5 629.5 L0 622 L0 32 L0.5 24.5 L2 18 L4.5 12.5 L8 8 L12.5 4.5 L18 2 L24.5 0.5 L32 0" stroke="none" stroke-width="0" fill="#ced4da"></path><path d="M32 0 M32 0 C116.25 0, 200.49 0, 393 0 M32 0 C146.55 0, 261.1 0, 393 0 M393 0 C414.33 0, 425 10.67, 425 32 M393 0 C414.33 0, 425 10.67, 425 32 M425 32 C425 210.37, 425 388.73, 425 622 M425 32 C425 224.55, 425 417.1, 425 622 M425 622 C425 643.33, 414.33 654, 393 654 M425 622 C425 643.33, 414.33 654, 393 654 M393 654 C307.05 654, 221.1 654, 32 654 M393 654 C271.48 654, 149.97 654, 32 654 M32 654 C10.67 654, 0 643.33, 0 622 M32 654 C10.67 654, 0 643.33, 0 622 M0 622 C0 408.5, 0 195, 0 32 M0 622 C0 430.8, 0 239.59, 0 32 M0 32 C0 10.67, 10.67 0, 32 0 M0 32 C0 10.67, 10.67 0, 32 0" stroke="#000000" stroke-width="2" fill="none"></path></g><g transform="translate(15 15) rotate(0 124.49609375 32.19999999999999)"><text x="0" y="0" font-family="Helvetica, Segoe UI Emoji" font-size="28px" fill="#000000" text-anchor="start" style="white-space: pre;" direction="ltr" dominant-baseline="text-before-edge">CDE Set: RDES195</text><text x="0" y="32.199999999999996" font-family="Helvetica, Segoe UI Emoji" font-size="28px" fill="#000000" text-anchor="start" style="white-space: pre;" direction="ltr" dominant-baseline="text-before-edge">Pulmonary Nodule</text></g><g stroke-linecap="round" transform="translate(29.64453125 90.09375000000006) rotate(0 190 39.5)"><path d="M19.75 0 L364.88 0.31 L368.89 1.23 L375.06 4.94 L378.77 11.11 L380 19.75 L379.69 63.88 L378.77 67.89 L375.06 74.06 L368.89 77.77 L360.25 79 L15.12 78.69 L7.71 76.22 L4.94 74.06 L1.23 67.89 L0 59.25 L0 19.75 L1.23 11.11 L4.94 4.94 L11.11 1.23 L19.75 0" stroke="none" stroke-width="0" fill="#fab005"></path><path d="M19.75 0 M19.75 0 C109.84 0, 199.93 0, 360.25 0 M19.75 0 C132.94 0, 246.14 0, 360.25 0 M360.25 0 C373.42 0, 380 6.58, 380 19.75 M360.25 0 C373.42 0, 380 6.58, 380 19.75 M380 19.75 C380 32.16, 380 44.58, 380 59.25 M380 19.75 C380 29.35, 380 38.95, 380 59.25 M380 59.25 C380 72.42, 373.42 79, 360.25 79 M380 59.25 C380 72.42, 373.42 79, 360.25 79 M360.25 79 C233.87 79, 107.49 79, 19.75 79 M360.25 79 C243.72 79, 127.18 79, 19.75 79 M19.75 79 C6.58 79, 0 72.42, 0 59.25 M19.75 79 C6.58 79, 0 72.42, 0 59.25 M0 59.25 C0 46.21, 0 33.18, 0 19.75 M0 59.25 C0 51.19, 0 43.12, 0 19.75 M0 19.75 C0 6.58, 6.58 0, 19.75 0 M0 19.75 C0 6.58, 6.58 0, 19.75 0" stroke="#000000" stroke-width="1" fill="none"></path></g><g transform="translate(34.64453125 95.09375000000006) rotate(0 163.80859375 34.5)"><text x="0" y="0" font-family="Helvetica, Segoe UI Emoji" font-size="20px" fill="#000000" text-anchor="start" style="white-space: pre;" direction="ltr" dominant-baseline="text-before-edge">CDE Element: RDE1300</text><text x="0" y="23" font-family="Helvetica, Segoe UI Emoji" font-size="20px" fill="#000000" text-anchor="start" style="white-space: pre;" direction="ltr" dominant-baseline="text-before-edge">Presence</text><text x="0" y="46" font-family="Helvetica, Segoe UI Emoji" font-size="20px" fill="#000000" text-anchor="start" style="white-space: pre;" direction="ltr" dominant-baseline="text-before-edge">Values: present, absent, unknown, ...</text></g><g stroke-linecap="round" transform="translate(29.64453125 190.09375000000006) rotate(0 190 40)"><path d="M20 0 L364.69 0.31 L368.75 1.25 L375 5 L378.75 11.25 L380 20 L379.69 64.69 L378.75 68.75 L375 75 L368.75 78.75 L360 80 L15.31 79.69 L7.81 77.19 L5 75 L1.25 68.75 L0 60 L0 20 L1.25 11.25 L5 5 L11.25 1.25 L20 0" stroke="none" stroke-width="0" fill="#fab005"></path><path d="M20 0 M20 0 C108.82 0, 197.63 0, 360 0 M20 0 C152.56 0, 285.11 0, 360 0 M360 0 C373.33 0, 380 6.67, 380 20 M360 0 C373.33 0, 380 6.67, 380 20 M380 20 C380 28.99, 380 37.97, 380 60 M380 20 C380 35.92, 380 51.84, 380 60 M380 60 C380 73.33, 373.33 80, 360 80 M380 60 C380 73.33, 373.33 80, 360 80 M360 80 C235.06 80, 110.11 80, 20 80 M360 80 C289.62 80, 219.24 80, 20 80 M20 80 C6.67 80, 0 73.33, 0 60 M20 80 C6.67 80, 0 73.33, 0 60 M0 60 C0 50.44, 0 40.89, 0 20 M0 60 C0 45.28, 0 30.56, 0 20 M0 20 C0 6.67, 6.67 0, 20 0 M0 20 C0 6.67, 6.67 0, 20 0" stroke="#000000" stroke-width="1" fill="none"></path></g><g transform="translate(34.64453125 195.09375000000006) rotate(0 179.35546875 34.5)"><text x="0" y="0" font-family="Helvetica, Segoe UI Emoji" font-size="20px" fill="#000000" text-anchor="start" style="white-space: pre;" direction="ltr" dominant-baseline="text-before-edge">CDE Element: RDE1301</text><text x="0" y="23" font-family="Helvetica, Segoe UI Emoji" font-size="20px" fill="#000000" text-anchor="start" style="white-space: pre;" direction="ltr" dominant-baseline="text-before-edge">Composition</text><text x="0" y="46" font-family="Helvetica, Segoe UI Emoji" font-size="20px" fill="#000000" text-anchor="start" style="white-space: pre;" direction="ltr" dominant-baseline="text-before-edge">Values: solid, ground glass, part-solid, ...</text></g><g stroke-linecap="round" transform="translate(29.64453125 290.09375000000006) rotate(0 190 41)"><path d="M20.5 0 L364.3 0.32 L368.47 1.28 L374.88 5.13 L378.72 11.53 L380 20.5 L379.68 66.3 L377.12 73.99 L374.88 76.88 L368.47 80.72 L359.5 82 L15.7 81.68 L8.01 79.12 L2.88 73.99 L1.28 70.47 L0 61.5 L0 20.5 L1.28 11.53 L5.13 5.13 L11.53 1.28 L20.5 0" stroke="none" stroke-width="0" fill="#fab005"></path><path d="M20.5 0 M20.5 0 C113.17 0, 205.84 0, 359.5 0 M20.5 0 C135.38 0, 250.25 0, 359.5 0 M359.5 0 C373.17 0, 380 6.83, 380 20.5 M359.5 0 C373.17 0, 380 6.83, 380 20.5 M380 20.5 C380 29.61, 380 38.72, 380 61.5 M380 20.5 C380 28.81, 380 37.12, 380 61.5 M380 61.5 C380 75.17, 373.17 82, 359.5 82 M380 61.5 C380 75.17, 373.17 82, 359.5 82 M359.5 82 C287.61 82, 215.72 82, 20.5 82 M359.5 82 C232.58 82, 105.65 82, 20.5 82 M20.5 82 C6.83 82, 0 75.17, 0 61.5 M20.5 82 C6.83 82, 0 75.17, 0 61.5 M0 61.5 C0 48.04, 0 34.59, 0 20.5 M0 61.5 C0 45.44, 0 29.38, 0 20.5 M0 20.5 C0 6.83, 6.83 0, 20.5 0 M0 20.5 C0 6.83, 6.83 0, 20.5 0" stroke="#000000" stroke-width="1" fill="none"></path></g><g transform="translate(34.64453125 295.09375000000006) rotate(0 132.6806640625 34.5)"><text x="0" y="0" font-family="Helvetica, Segoe UI Emoji" font-size="20px" fill="#000000" text-anchor="start" style="white-space: pre;" direction="ltr" dominant-baseline="text-before-edge">CDE Element: RDE1302</text><text x="0" y="23" font-family="Helvetica, Segoe UI Emoji" font-size="20px" fill="#000000" text-anchor="start" style="white-space: pre;" direction="ltr" dominant-baseline="text-before-edge">Size</text><text x="0" y="46" font-family="Helvetica, Segoe UI Emoji" font-size="20px" fill="#000000" text-anchor="start" style="white-space: pre;" direction="ltr" dominant-baseline="text-before-edge">Float, minimum 2, units: "mm"</text></g><g stroke-linecap="round" transform="translate(29.64453125 390.09374999999994) rotate(0 190 62.5)"><path d="M31.25 0 L348.75 0 L356.07 0.49 L362.42 1.95 L367.79 4.39 L372.19 7.81 L375.61 12.21 L378.05 17.58 L379.51 23.93 L380 93.75 L379.51 101.07 L378.05 107.42 L375.61 112.79 L372.19 117.19 L367.79 120.61 L362.42 123.05 L356.07 124.51 L348.75 125 L31.25 125 L23.93 124.51 L17.58 123.05 L12.21 120.61 L7.81 117.19 L4.39 112.79 L1.95 107.42 L0.49 101.07 L0.49 23.93 L1.95 17.58 L4.39 12.21 L7.81 7.81 L12.21 4.39 L17.58 1.95 L23.93 0.49 L31.25 0" stroke="none" stroke-width="0" fill="#fab005"></path><path d="M31.25 0 M31.25 0 C126.32 0, 221.38 0, 348.75 0 M31.25 0 C102.01 0, 172.77 0, 348.75 0 M348.75 0 C369.58 0, 380 10.42, 380 31.25 M348.75 0 C369.58 0, 380 10.42, 380 31.25 M380 31.25 C380 52.51, 380 73.76, 380 93.75 M380 31.25 C380 43.81, 380 56.36, 380 93.75 M380 93.75 C380 114.58, 369.58 125, 348.75 125 M380 93.75 C380 114.58, 369.58 125, 348.75 125 M348.75 125 C271.59 125, 194.42 125, 31.25 125 M348.75 125 C223.9 125, 99.06 125, 31.25 125 M31.25 125 C10.42 125, 0 114.58, 0 93.75 M31.25 125 C10.42 125, 0 114.58, 0 93.75 M0 93.75 C0 80.23, 0 66.72, 0 31.25 M0 93.75 C0 77.97, 0 62.2, 0 31.25 M0 31.25 C0 10.42, 10.42 0, 31.25 0 M0 31.25 C0 10.42, 10.42 0, 31.25 0" stroke="#000000" stroke-width="1" fill="none"></path></g><g transform="translate(34.64453125 395.09374999999994) rotate(0 183.818359375 57.5)"><text x="0" y="0" font-family="Helvetica, Segoe UI Emoji" font-size="20px" fill="#000000" text-anchor="start" style="white-space: pre;" direction="ltr" dominant-baseline="text-before-edge">CDE Element: RDE1304</text><text x="0" y="23" font-family="Helvetica, Segoe UI Emoji" font-size="20px" fill="#000000" text-anchor="start" style="white-space: pre;" direction="ltr" dominant-baseline="text-before-edge">Location</text><text x="0" y="46" font-family="Helvetica, Segoe UI Emoji" font-size="20px" fill="#000000" text-anchor="start" style="white-space: pre;" direction="ltr" dominant-baseline="text-before-edge">Values: indeterminate, left lung, left upper</text><text x="0" y="69" font-family="Helvetica, Segoe UI Emoji" font-size="20px" fill="#000000" text-anchor="start" style="white-space: pre;" direction="ltr" dominant-baseline="text-before-edge">lobe, lingula, left lower lobe, right lung, </text><text x="0" y="92" font-family="Helvetica, Segoe UI Emoji" font-size="20px" fill="#000000" text-anchor="start" style="white-space: pre;" direction="ltr" dominant-baseline="text-before-edge">right upper lobe, right middle lobe...</text></g><g transform="translate(44.5703125 532.8046875) rotate(0 165.2294921875 57.5)"><text x="0" y="0" font-family="Helvetica, Segoe UI Emoji" font-size="20px" fill="#000000" text-anchor="start" style="white-space: pre;" direction="ltr" dominant-baseline="text-before-edge">Other elements: </text><text x="0" y="23" font-family="Helvetica, Segoe UI Emoji" font-size="20px" fill="#000000" text-anchor="start" style="white-space: pre;" direction="ltr" dominant-baseline="text-before-edge">  • RDE1303: Solid component size</text><text x="0" y="46" font-family="Helvetica, Segoe UI Emoji" font-size="20px" fill="#000000" text-anchor="start" style="white-space: pre;" direction="ltr" dominant-baseline="text-before-edge">  • RDE1305: Morphology</text><text x="0" y="69" font-family="Helvetica, Segoe UI Emoji" font-size="20px" fill="#000000" text-anchor="start" style="white-space: pre;" direction="ltr" dominant-baseline="text-before-edge">  • RDE1306: Pluarality</text><text x="0" y="92" font-family="Helvetica, Segoe UI Emoji" font-size="20px" fill="#000000" text-anchor="start" style="white-space: pre;" direction="ltr" dominant-baseline="text-before-edge">  • RDE1307: Microcystic component </text></g><g stroke-linecap="round" transform="translate(621.1143973214286 147.97823660714272) rotate(0 240 176)"><path d="M32 0 L448 0 L455.5 0.5 L462 2 L467.5 4.5 L472 8 L475.5 12.5 L478 18 L479.5 24.5 L480 32 L480 320 L479.5 327.5 L478 334 L475.5 339.5 L472 344 L467.5 347.5 L462 350 L455.5 351.5 L448 352 L32 352 L24.5 351.5 L18 350 L12.5 347.5 L8 344 L4.5 339.5 L2 334 L0.5 327.5 L0 320 L0 32 L0.5 24.5 L2 18 L4.5 12.5 L8 8 L12.5 4.5 L18 2 L24.5 0.5 L32 0" stroke="none" stroke-width="0" fill="#82c91e"></path><path d="M32 0 M32 0 C179.21 0, 326.41 0, 448 0 M32 0 C156.63 0, 281.25 0, 448 0 M448 0 C469.33 0, 480 10.67, 480 32 M448 0 C469.33 0, 480 10.67, 480 32 M480 32 C480 136.89, 480 241.78, 480 320 M480 32 C480 101.32, 480 170.65, 480 320 M480 320 C480 341.33, 469.33 352, 448 352 M480 320 C480 341.33, 469.33 352, 448 352 M448 352 C349.04 352, 250.09 352, 32 352 M448 352 C339.37 352, 230.73 352, 32 352 M32 352 C10.67 352, 0 341.33, 0 320 M32 352 C10.67 352, 0 341.33, 0 320 M0 320 C0 219.21, 0 118.42, 0 32 M0 320 C0 256.5, 0 193, 0 32 M0 32 C0 10.67, 10.67 0, 32 0 M0 32 C0 10.67, 10.67 0, 32 0" stroke="#000000" stroke-width="1" fill="none"></path></g><g transform="translate(626.1143973214286 152.97823660714272) rotate(0 75.482421875 32.19999999999999)"><text x="0" y="0" font-family="Helvetica, Segoe UI Emoji" font-size="28px" fill="#000000" text-anchor="start" style="white-space: pre;" direction="ltr" dominant-baseline="text-before-edge">Observation</text><text x="0" y="32.199999999999996" font-family="Helvetica, Segoe UI Emoji" font-size="28px" fill="#000000" text-anchor="start" style="white-space: pre;" direction="ltr" dominant-baseline="text-before-edge"></text></g><g stroke-linecap="round" transform="translate(641.1143973214286 355.97823660714283) rotate(0 220 62.5)"><path d="M31.25 0 L408.75 0 L416.07 0.49 L422.42 1.95 L427.79 4.39 L432.19 7.81 L435.61 12.21 L438.05 17.58 L439.51 23.93 L440 93.75 L439.51 101.07 L438.05 107.42 L435.61 112.79 L432.19 117.19 L427.79 120.61 L422.42 123.05 L416.07 124.51 L408.75 125 L31.25 125 L23.93 124.51 L17.58 123.05 L12.21 120.61 L7.81 117.19 L4.39 112.79 L1.95 107.42 L0.49 101.07 L0.49 23.93 L1.95 17.58 L4.39 12.21 L7.81 7.81 L12.21 4.39 L17.58 1.95 L23.93 0.49 L31.25 0" stroke="none" stroke-width="0" fill="#fab005"></path><path d="M31.25 0 M31.25 0 C130.04 0, 228.83 0, 408.75 0 M31.25 0 C154.44 0, 277.64 0, 408.75 0 M408.75 0 C429.58 0, 440 10.42, 440 31.25 M408.75 0 C429.58 0, 440 10.42, 440 31.25 M440 31.25 C440 44.47, 440 57.69, 440 93.75 M440 31.25 C440 53.97, 440 76.69, 440 93.75 M440 93.75 C440 114.58, 429.58 125, 408.75 125 M440 93.75 C440 114.58, 429.58 125, 408.75 125 M408.75 125 C274.17 125, 139.59 125, 31.25 125 M408.75 125 C313.56 125, 218.37 125, 31.25 125 M31.25 125 C10.42 125, 0 114.58, 0 93.75 M31.25 125 C10.42 125, 0 114.58, 0 93.75 M0 93.75 C0 79.21, 0 64.67, 0 31.25 M0 93.75 C0 74.01, 0 54.27, 0 31.25 M0 31.25 C0 10.42, 10.42 0, 31.25 0 M0 31.25 C0 10.42, 10.42 0, 31.25 0" stroke="#000000" stroke-width="2" fill="none"></path></g><g transform="translate(646.1143973214286 360.97823660714283) rotate(0 187.880859375 57.5)"><text x="0" y="0" font-family="Helvetica, Segoe UI Emoji" font-size="20px" fill="#000000" text-anchor="start" style="white-space: pre;" direction="ltr" dominant-baseline="text-before-edge">• Components:</text><text x="0" y="23" font-family="Helvetica, Segoe UI Emoji" font-size="20px" fill="#000000" text-anchor="start" style="white-space: pre;" direction="ltr" dominant-baseline="text-before-edge">  – RDE1300: RDE1300.0, present</text><text x="0" y="46" font-family="Helvetica, Segoe UI Emoji" font-size="20px" fill="#000000" text-anchor="start" style="white-space: pre;" direction="ltr" dominant-baseline="text-before-edge">  – RDE1301: RDE1301.0, solid</text><text x="0" y="69" font-family="Helvetica, Segoe UI Emoji" font-size="20px" fill="#000000" text-anchor="start" style="white-space: pre;" direction="ltr" dominant-baseline="text-before-edge">  – RDE1302: 6</text><text x="0" y="92" font-family="Helvetica, Segoe UI Emoji" font-size="20px" fill="#000000" text-anchor="start" style="white-space: pre;" direction="ltr" dominant-baseline="text-before-edge">  – RDE1304: RDE1304.9, right lower lobe</text></g><g stroke-linecap="round" transform="translate(641.1143973214286 195.97823660714272) rotate(0 220 74)"><path d="M32 0 M32 0 C172.65 0, 313.31 0, 408 0 M408 0 C429.33 0, 440 10.67, 440 32 M440 32 C440 54.05, 440 76.1, 440 116 M440 116 C440 137.33, 429.33 148, 408 148 M408 148 C259.77 148, 111.54 148, 32 148 M32 148 C10.67 148, 0 137.33, 0 116 M0 116 C0 91.95, 0 67.91, 0 32 M0 32 C0 10.67, 10.67 0, 32 0" stroke="#000000" stroke-width="2.5" fill="none" stroke-dasharray="1.5 8"></path></g><g transform="translate(646.1143973214286 200.97823660714272) rotate(0 200.2783203125 69)"><text x="0" y="0" font-family="Helvetica, Segoe UI Emoji" font-size="20px" fill="#000000" text-anchor="start" style="white-space: pre;" direction="ltr" dominant-baseline="text-before-edge">• ID: 1d9a6d1796fc</text><text x="0" y="23" font-family="Helvetica, Segoe UI Emoji" font-size="20px" fill="#000000" text-anchor="start" style="white-space: pre;" direction="ltr" dominant-baseline="text-before-edge">• Codes: </text><text x="0" y="46" font-family="Helvetica, Segoe UI Emoji" font-size="20px" fill="#000000" text-anchor="start" style="white-space: pre;" direction="ltr" dominant-baseline="text-before-edge">  – RDES195, Pulmonary Nodule</text><text x="0" y="69" font-family="Helvetica, Segoe UI Emoji" font-size="20px" fill="#000000" text-anchor="start" style="white-space: pre;" direction="ltr" dominant-baseline="text-before-edge">  – RID50149, pulmonary nodule</text><text x="0" y="92" font-family="Helvetica, Segoe UI Emoji" font-size="20px" fill="#000000" text-anchor="start" style="white-space: pre;" direction="ltr" dominant-baseline="text-before-edge">• Tracking ID: 28d99870ace5</text><text x="0" y="115" font-family="Helvetica, Segoe UI Emoji" font-size="20px" fill="#000000" text-anchor="start" style="white-space: pre;" direction="ltr" dominant-baseline="text-before-edge">• Body Site: RID1315, lower lobe of right lung</text></g><g stroke-linecap="round"><g transform="translate(662.8571428571428 256.820596649033) rotate(0 -111.55552455357139 -95.57631486556727)"><path d="M0 0 C-37.19 -31.86, -185.93 -159.29, -223.11 -191.15 M0 0 C-37.19 -31.86, -185.93 -159.29, -223.11 -191.15" stroke="#000000" stroke-width="4" fill="none"></path></g><g transform="translate(662.8571428571428 256.820596649033) rotate(0 -111.55552455357139 -95.57631486556727)"><path d="M9.5 0 C9.5 0.55, 9.45 1.11, 9.36 1.65 C9.26 2.19, 9.12 2.73, 8.93 3.25 C8.74 3.77, 8.5 4.27, 8.23 4.75 C7.95 5.23, 7.63 5.69, 7.28 6.11 C6.92 6.53, 6.53 6.92, 6.11 7.28 C5.69 7.63, 5.23 7.95, 4.75 8.23 C4.27 8.5, 3.77 8.74, 3.25 8.93 C2.73 9.12, 2.19 9.26, 1.65 9.36 C1.11 9.45, 0.55 9.5, 0 9.5 C-0.55 9.5, -1.11 9.45, -1.65 9.36 C-2.19 9.26, -2.73 9.12, -3.25 8.93 C-3.77 8.74, -4.27 8.5, -4.75 8.23 C-5.23 7.95, -5.69 7.63, -6.11 7.28 C-6.53 6.92, -6.92 6.53, -7.28 6.11 C-7.63 5.69, -7.95 5.23, -8.23 4.75 C-8.5 4.27, -8.74 3.77, -8.93 3.25 C-9.12 2.73, -9.26 2.19, -9.36 1.65 C-9.45 1.11, -9.5 0.55, -9.5 0 C-9.5 -0.55, -9.45 -1.11, -9.36 -1.65 C-9.26 -2.19, -9.12 -2.73, -8.93 -3.25 C-8.74 -3.77, -8.5 -4.27, -8.23 -4.75 C-7.95 -5.23, -7.63 -5.69, -7.28 -6.11 C-6.92 -6.53, -6.53 -6.92, -6.11 -7.28 C-5.69 -7.63, -5.23 -7.95, -4.75 -8.23 C-4.27 -8.5, -3.77 -8.74, -3.25 -8.93 C-2.73 -9.12, -2.19 -9.26, -1.65 -9.36 C-1.11 -9.45, -0.55 -9.5, 0 -9.5 C0.55 -9.5, 1.11 -9.45, 1.65 -9.36 C2.19 -9.26, 2.73 -9.12, 3.25 -8.93 C3.77 -8.74, 4.27 -8.5, 4.75 -8.23 C5.23 -7.95, 5.69 -7.63, 6.11 -7.28 C6.53 -6.92, 6.92 -6.53, 7.28 -6.11 C7.63 -5.69, 7.95 -5.23, 8.23 -4.75 C8.5 -4.27, 8.74 -3.77, 8.93 -3.25 C9.12 -2.73, 9.26 -2.19, 9.36 -1.65 C9.45 -1.11, 9.48 -0.27, 9.5 0 C9.52 0.27, 9.52 -0.27, 9.5 0" stroke="none" stroke-width="0" fill="#000000"></path></g><g transform="translate(662.8571428571428 256.820596649033) rotate(0 -111.55552455357139 -95.57631486556727)"><path d="M-223.11 -191.15 L-208.66 -187.12 L-216.91 -177.49 L-223.11 -191.15" stroke="none" stroke-width="0" fill="#000000" fill-rule="evenodd"></path><path d="M-223.11 -191.15 C-218.52 -189.87, -213.92 -188.59, -208.66 -187.12 M-223.11 -191.15 C-219.67 -190.19, -216.22 -189.23, -208.66 -187.12 M-208.66 -187.12 C-211.78 -183.48, -214.9 -179.84, -216.91 -177.49 M-208.66 -187.12 C-210.95 -184.45, -213.25 -181.77, -216.91 -177.49 M-216.91 -177.49 C-218.19 -180.3, -219.46 -183.11, -223.11 -191.15 M-216.91 -177.49 C-219.08 -182.26, -221.24 -187.03, -223.11 -191.15 M-223.11 -191.15 C-223.11 -191.15, -223.11 -191.15, -223.11 -191.15 M-223.11 -191.15 C-223.11 -191.15, -223.11 -191.15, -223.11 -191.15" stroke="#000000" stroke-width="4" fill="none"></path></g></g><mask></mask><g stroke-linecap="round"><g transform="translate(664.4112723214283 395.22209821428584) rotate(0 -126.12527901785705 -119.78174557537625)"><path d="M0 0 C-42.04 -39.93, -210.21 -199.64, -252.25 -239.56 M0 0 C-42.04 -39.93, -210.21 -199.64, -252.25 -239.56" stroke="#000000" stroke-width="1" fill="none"></path></g><g transform="translate(664.4112723214283 395.22209821428584) rotate(0 -126.12527901785705 -119.78174557537625)"><path d="M8 0 C8 0.46, 7.96 0.93, 7.88 1.39 C7.8 1.85, 7.68 2.3, 7.52 2.74 C7.36 3.17, 7.16 3.6, 6.93 4 C6.7 4.4, 6.43 4.79, 6.13 5.14 C5.83 5.5, 5.5 5.83, 5.14 6.13 C4.79 6.43, 4.4 6.7, 4 6.93 C3.6 7.16, 3.17 7.36, 2.74 7.52 C2.3 7.68, 1.85 7.8, 1.39 7.88 C0.93 7.96, 0.46 8, 0 8 C-0.46 8, -0.93 7.96, -1.39 7.88 C-1.85 7.8, -2.3 7.68, -2.74 7.52 C-3.17 7.36, -3.6 7.16, -4 6.93 C-4.4 6.7, -4.79 6.43, -5.14 6.13 C-5.5 5.83, -5.83 5.5, -6.13 5.14 C-6.43 4.79, -6.7 4.4, -6.93 4 C-7.16 3.6, -7.36 3.17, -7.52 2.74 C-7.68 2.3, -7.8 1.85, -7.88 1.39 C-7.96 0.93, -8 0.46, -8 0 C-8 -0.46, -7.96 -0.93, -7.88 -1.39 C-7.8 -1.85, -7.68 -2.3, -7.52 -2.74 C-7.36 -3.17, -7.16 -3.6, -6.93 -4 C-6.7 -4.4, -6.43 -4.79, -6.13 -5.14 C-5.83 -5.5, -5.5 -5.83, -5.14 -6.13 C-4.79 -6.43, -4.4 -6.7, -4 -6.93 C-3.6 -7.16, -3.17 -7.36, -2.74 -7.52 C-2.3 -7.68, -1.85 -7.8, -1.39 -7.88 C-0.93 -7.96, -0.46 -8, 0 -8 C0.46 -8, 0.93 -7.96, 1.39 -7.88 C1.85 -7.8, 2.3 -7.68, 2.74 -7.52 C3.17 -7.36, 3.6 -7.16, 4 -6.93 C4.4 -6.7, 4.79 -6.43, 5.14 -6.13 C5.5 -5.83, 5.83 -5.5, 6.13 -5.14 C6.43 -4.79, 6.7 -4.4, 6.93 -4 C7.16 -3.6, 7.36 -3.17, 7.52 -2.74 C7.68 -2.3, 7.8 -1.85, 7.88 -1.39 C7.96 -0.93, 7.98 -0.23, 8 0 C8.02 0.23, 8.02 -0.23, 8 0" stroke="none" stroke-width="0" fill="#000000"></path></g><g transform="translate(664.4112723214283 395.22209821428584) rotate(0 -126.12527901785705 -119.78174557537625)"><path d="M-252.25 -239.56 L-238.03 -234.8 L-246.76 -225.61 L-252.25 -239.56" stroke="none" stroke-width="0" fill="#000000" fill-rule="evenodd"></path><path d="M-252.25 -239.56 C-246.82 -237.75, -241.4 -235.93, -238.03 -234.8 M-252.25 -239.56 C-249.15 -238.52, -246.05 -237.49, -238.03 -234.8 M-238.03 -234.8 C-240.15 -232.56, -242.27 -230.33, -246.76 -225.61 M-238.03 -234.8 C-240.93 -231.75, -243.82 -228.69, -246.76 -225.61 M-246.76 -225.61 C-248.14 -229.12, -249.53 -232.64, -252.25 -239.56 M-246.76 -225.61 C-248.13 -229.1, -249.51 -232.59, -252.25 -239.56 M-252.25 -239.56 C-252.25 -239.56, -252.25 -239.56, -252.25 -239.56 M-252.25 -239.56 C-252.25 -239.56, -252.25 -239.56, -252.25 -239.56" stroke="#000000" stroke-width="1" fill="none"></path></g></g><mask></mask><g stroke-linecap="round"><g transform="translate(663.0479910714283 440.15066964285717) rotate(0 -124.88058035714283 -51.749831316990935)"><path d="M0 0 C-41.63 -17.25, -208.13 -86.25, -249.76 -103.5 M0 0 C-41.63 -17.25, -208.13 -86.25, -249.76 -103.5" stroke="#000000" stroke-width="1" fill="none"></path></g><g transform="translate(663.0479910714283 440.15066964285717) rotate(0 -124.88058035714283 -51.749831316990935)"><path d="M8 0 C8 0.46, 7.96 0.93, 7.88 1.39 C7.8 1.85, 7.68 2.3, 7.52 2.74 C7.36 3.17, 7.16 3.6, 6.93 4 C6.7 4.4, 6.43 4.79, 6.13 5.14 C5.83 5.5, 5.5 5.83, 5.14 6.13 C4.79 6.43, 4.4 6.7, 4 6.93 C3.6 7.16, 3.17 7.36, 2.74 7.52 C2.3 7.68, 1.85 7.8, 1.39 7.88 C0.93 7.96, 0.46 8, 0 8 C-0.46 8, -0.93 7.96, -1.39 7.88 C-1.85 7.8, -2.3 7.68, -2.74 7.52 C-3.17 7.36, -3.6 7.16, -4 6.93 C-4.4 6.7, -4.79 6.43, -5.14 6.13 C-5.5 5.83, -5.83 5.5, -6.13 5.14 C-6.43 4.79, -6.7 4.4, -6.93 4 C-7.16 3.6, -7.36 3.17, -7.52 2.74 C-7.68 2.3, -7.8 1.85, -7.88 1.39 C-7.96 0.93, -8 0.46, -8 0 C-8 -0.46, -7.96 -0.93, -7.88 -1.39 C-7.8 -1.85, -7.68 -2.3, -7.52 -2.74 C-7.36 -3.17, -7.16 -3.6, -6.93 -4 C-6.7 -4.4, -6.43 -4.79, -6.13 -5.14 C-5.83 -5.5, -5.5 -5.83, -5.14 -6.13 C-4.79 -6.43, -4.4 -6.7, -4 -6.93 C-3.6 -7.16, -3.17 -7.36, -2.74 -7.52 C-2.3 -7.68, -1.85 -7.8, -1.39 -7.88 C-0.93 -7.96, -0.46 -8, 0 -8 C0.46 -8, 0.93 -7.96, 1.39 -7.88 C1.85 -7.8, 2.3 -7.68, 2.74 -7.52 C3.17 -7.36, 3.6 -7.16, 4 -6.93 C4.4 -6.7, 4.79 -6.43, 5.14 -6.13 C5.5 -5.83, 5.83 -5.5, 6.13 -5.14 C6.43 -4.79, 6.7 -4.4, 6.93 -4 C7.16 -3.6, 7.36 -3.17, 7.52 -2.74 C7.68 -2.3, 7.8 -1.85, 7.88 -1.39 C7.96 -0.93, 7.98 -0.23, 8 0 C8.02 0.23, 8.02 -0.23, 8 0" stroke="none" stroke-width="0" fill="#000000"></path></g><g transform="translate(663.0479910714283 440.15066964285717) rotate(0 -124.88058035714283 -51.749831316990935)"><path d="M-249.76 -103.5 L-234.78 -104.15 L-239.63 -92.44 L-249.76 -103.5" stroke="none" stroke-width="0" fill="#000000" fill-rule="evenodd"></path><path d="M-249.76 -103.5 C-244.51 -103.73, -239.25 -103.96, -234.78 -104.15 M-249.76 -103.5 C-245.44 -103.69, -241.11 -103.88, -234.78 -104.15 M-234.78 -104.15 C-236.68 -99.54, -238.59 -94.94, -239.63 -92.44 M-234.78 -104.15 C-236.62 -99.69, -238.47 -95.23, -239.63 -92.44 M-239.63 -92.44 C-243.54 -96.71, -247.45 -100.97, -249.76 -103.5 M-239.63 -92.44 C-242.91 -96.02, -246.2 -99.61, -249.76 -103.5 M-249.76 -103.5 C-249.76 -103.5, -249.76 -103.5, -249.76 -103.5 M-249.76 -103.5 C-249.76 -103.5, -249.76 -103.5, -249.76 -103.5" stroke="#000000" stroke-width="1" fill="none"></path></g></g><mask></mask><g stroke-linecap="round"><g transform="translate(663.2907366071428 418.2611607142857) rotate(0 -124.52260044642856 -92.26444786343535)"><path d="M0 0 C-41.51 -30.75, -207.54 -153.77, -249.05 -184.53 M0 0 C-41.51 -30.75, -207.54 -153.77, -249.05 -184.53" stroke="#000000" stroke-width="1" fill="none"></path></g><g transform="translate(663.2907366071428 418.2611607142857) rotate(0 -124.52260044642856 -92.26444786343535)"><path d="M8 0 C8 0.46, 7.96 0.93, 7.88 1.39 C7.8 1.85, 7.68 2.3, 7.52 2.74 C7.36 3.17, 7.16 3.6, 6.93 4 C6.7 4.4, 6.43 4.79, 6.13 5.14 C5.83 5.5, 5.5 5.83, 5.14 6.13 C4.79 6.43, 4.4 6.7, 4 6.93 C3.6 7.16, 3.17 7.36, 2.74 7.52 C2.3 7.68, 1.85 7.8, 1.39 7.88 C0.93 7.96, 0.46 8, 0 8 C-0.46 8, -0.93 7.96, -1.39 7.88 C-1.85 7.8, -2.3 7.68, -2.74 7.52 C-3.17 7.36, -3.6 7.16, -4 6.93 C-4.4 6.7, -4.79 6.43, -5.14 6.13 C-5.5 5.83, -5.83 5.5, -6.13 5.14 C-6.43 4.79, -6.7 4.4, -6.93 4 C-7.16 3.6, -7.36 3.17, -7.52 2.74 C-7.68 2.3, -7.8 1.85, -7.88 1.39 C-7.96 0.93, -8 0.46, -8 0 C-8 -0.46, -7.96 -0.93, -7.88 -1.39 C-7.8 -1.85, -7.68 -2.3, -7.52 -2.74 C-7.36 -3.17, -7.16 -3.6, -6.93 -4 C-6.7 -4.4, -6.43 -4.79, -6.13 -5.14 C-5.83 -5.5, -5.5 -5.83, -5.14 -6.13 C-4.79 -6.43, -4.4 -6.7, -4 -6.93 C-3.6 -7.16, -3.17 -7.36, -2.74 -7.52 C-2.3 -7.68, -1.85 -7.8, -1.39 -7.88 C-0.93 -7.96, -0.46 -8, 0 -8 C0.46 -8, 0.93 -7.96, 1.39 -7.88 C1.85 -7.8, 2.3 -7.68, 2.74 -7.52 C3.17 -7.36, 3.6 -7.16, 4 -6.93 C4.4 -6.7, 4.79 -6.43, 5.14 -6.13 C5.5 -5.83, 5.83 -5.5, 6.13 -5.14 C6.43 -4.79, 6.7 -4.4, 6.93 -4 C7.16 -3.6, 7.36 -3.17, 7.52 -2.74 C7.68 -2.3, 7.8 -1.85, 7.88 -1.39 C7.96 -0.93, 7.98 -0.23, 8 0 C8.02 0.23, 8.02 -0.23, 8 0" stroke="none" stroke-width="0" fill="#000000"></path></g><g transform="translate(663.2907366071428 418.2611607142857) rotate(0 -124.52260044642856 -92.26444786343535)"><path d="M-249.05 -184.53 L-234.35 -181.53 L-241.9 -171.34 L-249.05 -184.53" stroke="none" stroke-width="0" fill="#000000" fill-rule="evenodd"></path><path d="M-249.05 -184.53 C-243.86 -183.47, -238.68 -182.41, -234.35 -181.53 M-249.05 -184.53 C-244.84 -183.67, -240.64 -182.81, -234.35 -181.53 M-234.35 -181.53 C-236 -179.3, -237.66 -177.06, -241.9 -171.34 M-234.35 -181.53 C-236.01 -179.28, -237.67 -177.04, -241.9 -171.34 M-241.9 -171.34 C-243.38 -174.08, -244.87 -176.83, -249.05 -184.53 M-241.9 -171.34 C-243.4 -174.11, -244.9 -176.88, -249.05 -184.53 M-249.05 -184.53 C-249.05 -184.53, -249.05 -184.53, -249.05 -184.53 M-249.05 -184.53 C-249.05 -184.53, -249.05 -184.53, -249.05 -184.53" stroke="#000000" stroke-width="1" fill="none"></path></g></g><mask></mask><g stroke-linecap="round"><g transform="translate(662.0943080357141 462.9849330357143) rotate(0 -123.97237723214266 2.2114645756363416)"><path d="M0 0 C-41.32 0.74, -206.62 3.69, -247.94 4.42 M0 0 C-41.32 0.74, -206.62 3.69, -247.94 4.42" stroke="#000000" stroke-width="1" fill="none"></path></g><g transform="translate(662.0943080357141 462.9849330357143) rotate(0 -123.97237723214266 2.2114645756363416)"><path d="M8 0 C8 0.46, 7.96 0.93, 7.88 1.39 C7.8 1.85, 7.68 2.3, 7.52 2.74 C7.36 3.17, 7.16 3.6, 6.93 4 C6.7 4.4, 6.43 4.79, 6.13 5.14 C5.83 5.5, 5.5 5.83, 5.14 6.13 C4.79 6.43, 4.4 6.7, 4 6.93 C3.6 7.16, 3.17 7.36, 2.74 7.52 C2.3 7.68, 1.85 7.8, 1.39 7.88 C0.93 7.96, 0.46 8, 0 8 C-0.46 8, -0.93 7.96, -1.39 7.88 C-1.85 7.8, -2.3 7.68, -2.74 7.52 C-3.17 7.36, -3.6 7.16, -4 6.93 C-4.4 6.7, -4.79 6.43, -5.14 6.13 C-5.5 5.83, -5.83 5.5, -6.13 5.14 C-6.43 4.79, -6.7 4.4, -6.93 4 C-7.16 3.6, -7.36 3.17, -7.52 2.74 C-7.68 2.3, -7.8 1.85, -7.88 1.39 C-7.96 0.93, -8 0.46, -8 0 C-8 -0.46, -7.96 -0.93, -7.88 -1.39 C-7.8 -1.85, -7.68 -2.3, -7.52 -2.74 C-7.36 -3.17, -7.16 -3.6, -6.93 -4 C-6.7 -4.4, -6.43 -4.79, -6.13 -5.14 C-5.83 -5.5, -5.5 -5.83, -5.14 -6.13 C-4.79 -6.43, -4.4 -6.7, -4 -6.93 C-3.6 -7.16, -3.17 -7.36, -2.74 -7.52 C-2.3 -7.68, -1.85 -7.8, -1.39 -7.88 C-0.93 -7.96, -0.46 -8, 0 -8 C0.46 -8, 0.93 -7.96, 1.39 -7.88 C1.85 -7.8, 2.3 -7.68, 2.74 -7.52 C3.17 -7.36, 3.6 -7.16, 4 -6.93 C4.4 -6.7, 4.79 -6.43, 5.14 -6.13 C5.5 -5.83, 5.83 -5.5, 6.13 -5.14 C6.43 -4.79, 6.7 -4.4, 6.93 -4 C7.16 -3.6, 7.36 -3.17, 7.52 -2.74 C7.68 -2.3, 7.8 -1.85, 7.88 -1.39 C7.96 -0.93, 7.98 -0.23, 8 0 C8.02 0.23, 8.02 -0.23, 8 0" stroke="none" stroke-width="0" fill="#000000"></path></g><g transform="translate(662.0943080357141 462.9849330357143) rotate(0 -123.97237723214266 2.2114645756363416)"><path d="M-247.94 4.42 L-234.47 -2.16 L-234.24 10.52 L-247.94 4.42" stroke="none" stroke-width="0" fill="#000000" fill-rule="evenodd"></path><path d="M-247.94 4.42 C-243.33 2.17, -238.71 -0.08, -234.47 -2.16 M-247.94 4.42 C-243.38 2.19, -238.82 -0.03, -234.47 -2.16 M-234.47 -2.16 C-234.38 2.59, -234.3 7.34, -234.24 10.52 M-234.47 -2.16 C-234.4 1.52, -234.33 5.19, -234.24 10.52 M-234.24 10.52 C-238.78 8.5, -243.32 6.48, -247.94 4.42 M-234.24 10.52 C-237.51 9.06, -240.78 7.61, -247.94 4.42 M-247.94 4.42 C-247.94 4.42, -247.94 4.42, -247.94 4.42 M-247.94 4.42 C-247.94 4.42, -247.94 4.42, -247.94 4.42" stroke="#000000" stroke-width="1" fill="none"></path></g></g><mask></mask></svg>